<?xml version="1.0"?>
<svg xmlns="http://www.w3.org/2000/svg" xmlns:xlink="http://www.w3.org/1999/xlink" version="1.1" id="Capa_1" x="0px" y="0px" viewBox="0 0 480.001 480.001" style="enable-background:new 0 0 480.001 480.001;" xml:space="preserve" width="512px" height="512px"><g><g>
	<g>
		<path d="M472.005,0c-0.001,0-0.003,0-0.004,0h-208c-4.417-0.001-7.999,3.579-8,7.996c0,0.001,0,0.003,0,0.004v208    c-0.001,4.417,3.579,7.999,7.996,8c0.001,0,0.003,0,0.004,0h208c4.417,0.001,7.999-3.579,8-7.996c0-0.001,0-0.003,0-0.004V8    C480.002,3.583,476.422,0.002,472.005,0z M464.001,208h-192V16h192V208z" data-original="#000000" class="active-path" data-old_color="#000000" fill="#191919"/>
	</g>
</g><g>
	<g>
		<path d="M239.044,212.211l-112-208c-2.446-3.89-7.583-5.06-11.472-2.614c-1.056,0.664-1.949,1.557-2.614,2.614l-112,208    c-1.336,2.477-1.269,5.475,0.176,7.891c1.441,2.419,4.051,3.901,6.867,3.898h224c4.418,0,7.998-3.582,7.998-7.999    C239.999,214.678,239.671,213.376,239.044,212.211z M21.396,208l98.605-183.125L218.606,208H21.396z" data-original="#000000" class="active-path" data-old_color="#000000" fill="#191919"/>
	</g>
</g><g>
	<g>
		<path d="M368.001,256c-61.856,0-112,50.144-112,112s50.144,112,112,112s112-50.144,112-112    C479.932,306.173,429.828,256.07,368.001,256z M368.001,464c-53.019,0-96-42.981-96-96s42.981-96,96-96s96,42.981,96,96    C463.942,420.995,420.996,463.941,368.001,464z" data-original="#000000" class="active-path" data-old_color="#000000" fill="#191919"/>
	</g>
</g><g>
	<g>
		<path d="M239.044,364.211l-56-104c-1.394-2.593-4.099-4.21-7.043-4.211h-112c-2.944,0.001-5.649,1.618-7.043,4.211l-56,104    c-1.277,2.365-1.277,5.214,0,7.578l56,104c1.394,2.593,4.099,4.21,7.043,4.211h112c2.944-0.001,5.649-1.618,7.043-4.211l56-104    C240.321,369.425,240.321,366.576,239.044,364.211z M171.224,464H68.778l-51.691-96l51.691-96h102.445l51.691,96L171.224,464z" data-original="#000000" class="active-path" data-old_color="#000000" fill="#191919"/>
	</g>
</g><g>
	<g>
		<rect x="432.001" y="56" width="16" height="112" data-original="#000000" class="active-path" data-old_color="#000000" fill="#191919"/>
	</g>
</g><g>
	<g>
		
			<rect x="26.811" y="332.036" transform="matrix(0.4855 -0.8742 0.8742 0.4855 -262.2881 234.3983)" width="82.368" height="15.992" data-original="#000000" class="active-path" data-old_color="#000000" fill="#191919"/>
	</g>
</g><g>
	<g>
		<rect x="45.881" y="124.001" transform="matrix(0.4788 -0.8779 0.8779 0.4788 -65.8525 153.0721)" width="100.24" height="16" data-original="#000000" class="active-path" data-old_color="#000000" fill="#191919"/>
	</g>
</g><g>
	<g>
		<path d="M424.474,315.633l-13.406,8.734c17.245,26.533,17.245,60.733,0,87.266l13.406,8.734    C445.177,388.526,445.177,347.475,424.474,315.633z" data-original="#000000" class="active-path" data-old_color="#000000" fill="#191919"/>
	</g>
</g></g> </svg>
