<?xml version="1.0"?>
<svg xmlns="http://www.w3.org/2000/svg" viewBox="0 0 64 64" width="512px" height="512px"><g><g id="Loan-Cash"><path d="M61.522,23.127a4.005,4.005,0,0,0-5.446-1.447c-.027.016-.049.038-.076.054V5a3,3,0,0,0-3-3H11A3,3,0,0,0,8,5V21.728c-.024-.014-.042-.034-.066-.047a4,4,0,0,0-5.863,4.5l5.7,21.251a1,1,0,0,0,.373.547l4.875,3.586.168.627-.966.259a1,1,0,0,0-.707,1.224l2.07,7.728a1,1,0,0,0,1.225.707l15.455-4.141a1,1,0,0,0,.707-1.225L28.9,49.014a1,1,0,0,0-1.225-.707l-.966.258-1.8-6.712a.992.992,0,0,0-.258-.448L19.243,36H44.756l-5.4,5.4a1.011,1.011,0,0,0-.259.449l-1.8,6.714-.964-.258a1,1,0,0,0-1.225.707l-2.07,7.727a1,1,0,0,0,.707,1.225L49.2,62.107a1,1,0,0,0,1.225-.707l2.07-7.728a1,1,0,0,0-.707-1.224l-.968-.26.169-.63,4.876-3.582a1,1,0,0,0,.374-.546l5.691-21.251A3.977,3.977,0,0,0,61.522,23.127ZM54,10.184A2.966,2.966,0,0,0,53,10H11a2.966,2.966,0,0,0-1,.184V9a1,1,0,0,1,1-1H53a1,1,0,0,1,1,1ZM11,4H53a1,1,0,0,1,1,1V6.184A2.966,2.966,0,0,0,53,6H11a2.966,2.966,0,0,0-1,.184V5A1,1,0,0,1,11,4ZM28.775,56.293,15.252,59.917l-1.553-5.8,6.762-1.812,5.8-1.553h0l.966-.259Zm-4-7.21-4.83,1.294-4.83,1.294-.259-.965a.991.991,0,0,0-.373-.547L9.606,46.572,4,25.661a2,2,0,0,1,1.414-2.45,2.006,2.006,0,0,1,2.45,1.414L9.654,31.3a4.236,4.236,0,0,0-.425.352,4.012,4.012,0,0,0,0,5.658l8.083,8.083,1.415-1.414-8.083-8.083a2,2,0,0,1-.007-2.823,1.868,1.868,0,0,1,.569-.393.769.769,0,0,0,.091-.045,1.25,1.25,0,0,1,.244-.086,2,2,0,0,1,1.935.518l9.568,9.566ZM17.243,34,14.89,31.647A4,4,0,0,0,14.037,31H17V29H14V26H12v4a.978.978,0,0,0,.14.481,3.976,3.976,0,0,0-.625.034L10,24.859V13a1,1,0,0,1,1-1H53a1,1,0,0,1,1,1V24.872l-1.512,5.644a4.02,4.02,0,0,0-.629-.034A.972.972,0,0,0,52,30V26H50v3H47v2h2.959a3.965,3.965,0,0,0-.846.643L46.756,34ZM48.748,59.917,35.225,56.293l1.552-5.8.962.258h0l11.59,3.11c.012,0,.024,0,.036.005l.934.25ZM59.994,25.662l-5.6,20.91-4.876,3.582a.991.991,0,0,0-.374.547l-.261.97-9.659-2.588,1.731-6.455,9.571-9.571a1.983,1.983,0,0,1,1.951-.507,1.666,1.666,0,0,1,.334.136,1.77,1.77,0,0,1,.541.372,2.05,2.05,0,0,1,.528.939,1.974,1.974,0,0,1-.528,1.9l-8.08,8.08,1.414,1.414,8.08-8.08a4,4,0,0,0,1.051-3.8,4.049,4.049,0,0,0-1.065-1.874,4.24,4.24,0,0,0-.4-.33l1.789-6.678a1.946,1.946,0,0,1,.94-1.21,1.918,1.918,0,0,1,1.51-.193,1.952,1.952,0,0,1,1.2.915A2,2,0,0,1,59.994,25.662Z" data-original="#000000" class="active-path" data-old_color="#000000" fill="#191919"/><path d="M32,16a7,7,0,1,0,7,7A7.008,7.008,0,0,0,32,16Zm0,12a5,5,0,1,1,5-5A5.006,5.006,0,0,1,32,28Z" data-original="#000000" class="active-path" data-old_color="#000000" fill="#191919"/><path d="M12,16v4h2V17h3V15H13A1,1,0,0,0,12,16Z" data-original="#000000" class="active-path" data-old_color="#000000" fill="#191919"/><path d="M50,20h2V16a1,1,0,0,0-1-1H47v2h3Z" data-original="#000000" class="active-path" data-old_color="#000000" fill="#191919"/><rect x="42" y="22" width="2" height="2" data-original="#000000" class="active-path" data-old_color="#000000" fill="#191919"/><rect x="20" y="22" width="2" height="2" data-original="#000000" class="active-path" data-old_color="#000000" fill="#191919"/></g></g> </svg>
